<?xml version="1.0" encoding="utf-8"?>
<!-- Generator: Adobe Illustrator 24.0.0, SVG Export Plug-In . SVG Version: 6.00 Build 0)  -->
<svg version="1.1" id="Laag_1" xmlns="http://www.w3.org/2000/svg" xmlns:xlink="http://www.w3.org/1999/xlink" x="0px" y="0px"
	 viewBox="0 0 256 256" style="enable-background:new 0 0 256 256;" xml:space="preserve">
<style type="text/css">
	.st0{fill:#50B85F;}
</style>
<g>
	<path class="st0" d="M149.4,163.6c-19.4,0-35.4-15.8-35.4-35.4s15.8-35.4,35.4-35.4c12.6,0,24.2,6.8,30.6,17.6
		c1.6,2.8,0.6,6.4-2.2,8s-6.4,0.6-8-2.2c-4.2-7.2-12-11.8-20.4-11.8c-13,0.2-23.6,10.8-23.6,23.8s10.6,23.6,23.6,23.6
		c8.4,0,16.2-4.6,20.4-11.8c1.6-2.8,5.2-3.8,8-2.2c2.8,1.6,3.8,5.2,2.2,8C173.8,156.8,162,163.6,149.4,163.6z"/>
	<g>
		<path class="st0" d="M153.4,183.2h-49.2c-30.2,0-54.8-24.6-54.8-55s24.6-55,54.8-55h49c24.2,0,45.2,15.4,52.4,38.4
			c1,3.2-0.8,6.4-3.8,7.4c-3.2,1-6.4-0.8-7.4-3.8c-5.6-18-22.2-30.2-41.2-30.2h-49c-23.8,0-43,19.4-43,43.2s19.4,43.2,43.2,43.2h49
			c19,0,35.6-12.2,41.2-30.2c1-3.2,4.2-4.8,7.4-3.8s4.8,4.2,3.8,7.4C198.6,167.6,177.4,183.2,153.4,183.2z"/>
	</g>
</g>
</svg>
